<?xml version="1.0" encoding="UTF-8" standalone="no"?>
<!-- Created with Inkscape (http://www.inkscape.org/) -->

<svg
   width="128"
   height="128"
   viewBox="0 0 33.866667 33.866664"
   version="1.1"
   id="svg1"
   inkscape:version="1.3.2 (091e20ef0f, 2023-11-25)"
   sodipodi:docname="add.svg"
   xmlns:inkscape="http://www.inkscape.org/namespaces/inkscape"
   xmlns:sodipodi="http://sodipodi.sourceforge.net/DTD/sodipodi-0.dtd"
   xmlns="http://www.w3.org/2000/svg"
   xmlns:svg="http://www.w3.org/2000/svg">
  <sodipodi:namedview
     id="namedview1"
     pagecolor="#505050"
     bordercolor="#eeeeee"
     borderopacity="1"
     inkscape:showpageshadow="0"
     inkscape:pageopacity="0"
     inkscape:pagecheckerboard="0"
     inkscape:deskcolor="#d1d1d1"
     inkscape:document-units="px"
     inkscape:zoom="3.8803576"
     inkscape:cx="61.334553"
     inkscape:cy="62.107678"
     inkscape:window-width="1920"
     inkscape:window-height="1048"
     inkscape:window-x="0"
     inkscape:window-y="0"
     inkscape:window-maximized="1"
     inkscape:current-layer="layer1"
     showgrid="false" />
  <defs
     id="defs1" />
  <g
     inkscape:label="Calque 1"
     inkscape:groupmode="layer"
     id="layer1"
     transform="translate(0,-263.13332)">
    <path
       id="rect1"
       style="fill:#000000;stroke-width:2;stroke-linecap:round;stroke-linejoin:round;paint-order:fill markers stroke"
       d="M 14.529862 267.27002 C 13.498417 267.27002 12.66796 268.10048 12.66796 269.13192 L 12.66796 275.80128 L 5.9986001 275.80128 C 4.9671553 275.80128 4.1366983 276.63174 4.1366983 277.66318 L 4.1366983 282.47012 C 4.1366983 283.50157 4.9671553 284.33203 5.9986001 284.33203 L 12.66796 284.33203 L 12.66796 291.00139 C 12.66796 292.03283 13.498417 292.86329 14.529862 292.86329 L 19.336804 292.86329 C 20.368248 292.86329 21.198705 292.03283 21.198705 291.00139 L 21.198705 284.33203 L 27.868065 284.33203 C 28.89951 284.33203 29.729967 283.50157 29.729967 282.47012 L 29.729967 277.66318 C 29.729967 276.63174 28.89951 275.80128 27.868065 275.80128 L 21.198705 275.80128 L 21.198705 269.13192 C 21.198705 268.10048 20.368248 267.27002 19.336804 267.27002 L 14.529862 267.27002 z " />
  </g>
</svg>
