<?xml version="1.0" encoding="UTF-8" standalone="no"?>
<!-- Created with Inkscape (http://www.inkscape.org/) -->

<svg
   width="128"
   height="128"
   viewBox="0 0 33.866666 33.866666"
   version="1.1"
   id="svg1"
   inkscape:version="1.3.2 (091e20ef0f, 2023-11-25)"
   sodipodi:docname="audible.svg"
   xml:space="preserve"
   xmlns:inkscape="http://www.inkscape.org/namespaces/inkscape"
   xmlns:sodipodi="http://sodipodi.sourceforge.net/DTD/sodipodi-0.dtd"
   xmlns="http://www.w3.org/2000/svg"
   xmlns:svg="http://www.w3.org/2000/svg"><sodipodi:namedview
     id="namedview1"
     pagecolor="#505050"
     bordercolor="#eeeeee"
     borderopacity="1"
     inkscape:showpageshadow="0"
     inkscape:pageopacity="0"
     inkscape:pagecheckerboard="0"
     inkscape:deskcolor="#d1d1d1"
     inkscape:document-units="px"
     inkscape:zoom="2.7438272"
     inkscape:cx="17.129359"
     inkscape:cy="49.930258"
     inkscape:window-width="1920"
     inkscape:window-height="1048"
     inkscape:window-x="0"
     inkscape:window-y="0"
     inkscape:window-maximized="1"
     inkscape:current-layer="layer1"
     showgrid="false" /><defs
     id="defs1" /><g
     inkscape:label="Calque 1"
     inkscape:groupmode="layer"
     id="layer1"
     transform="translate(0,-263.13332)"><path
       id="path1"
       style="fill:#333333;stroke-width:0.682882;stroke-linecap:round;stroke-linejoin:round;paint-order:fill markers stroke"
       d="m 15.410796,266.8771 c 0,0.0335 0.176553,0.51947 0.392919,1.07972 0.578037,1.4967 0.731891,2.2044 0.731891,3.36678 0,0.98942 -0.0202,1.07943 -0.411437,1.78424 -0.226611,0.40823 -0.932524,1.54196 -1.568454,2.51934 -1.405376,2.15993 -1.484296,2.36189 -1.229482,3.153 0.392325,1.21804 1.722285,3.29438 3.199308,4.99602 l 0.80154,0.92351 -0.423918,0.1095 c -0.233059,0.0598 -0.9443,0.16247 -1.580532,0.22908 -2.252609,0.23543 -2.820462,0.77813 -2.926359,2.7943 -0.05202,0.99036 -0.03807,1.07535 0.292676,1.74719 0.453367,0.92091 1.358544,1.90923 2.642943,2.88569 0.983381,0.74774 1.359904,0.96733 1.125615,0.65621 -0.306779,-0.4074 -0.913453,-1.42502 -1.042282,-1.748 -0.33661,-0.84392 0.146998,-2.32441 1.015309,-3.1051 1.227964,-1.10412 2.672045,-1.13283 5.044738,-0.10185 0.0863,0.0375 -0.147681,-0.33316 -0.520134,-0.82288 -1.018817,-1.33957 -2.308006,-3.34753 -2.91871,-4.54713 -0.528332,-1.03762 -0.543745,-1.09738 -0.535432,-2.02579 0.01194,-1.33241 0.419474,-2.31887 1.867169,-4.51896 1.076694,-1.63625 1.443655,-2.34774 1.443655,-2.79711 0,-0.30396 -0.776665,-1.39239 -1.934401,-2.71098 -2.422171,-2.75873 -3.466622,-3.92411 -3.466622,-3.86678 z"
       sodipodi:nodetypes="scssccccccsccccccccccscs" /></g></svg>
