<?xml version="1.0" encoding="UTF-8" standalone="no"?>
<!-- Created with Inkscape (http://www.inkscape.org/) -->

<svg
   width="128"
   height="128"
   viewBox="0 0 33.866666 33.866666"
   version="1.1"
   id="svg1"
   inkscape:version="1.3.2 (091e20ef0f, 2023-11-25)"
   sodipodi:docname="glass.svg"
   xml:space="preserve"
   xmlns:inkscape="http://www.inkscape.org/namespaces/inkscape"
   xmlns:sodipodi="http://sodipodi.sourceforge.net/DTD/sodipodi-0.dtd"
   xmlns="http://www.w3.org/2000/svg"
   xmlns:svg="http://www.w3.org/2000/svg"><sodipodi:namedview
     id="namedview1"
     pagecolor="#505050"
     bordercolor="#eeeeee"
     borderopacity="1"
     inkscape:showpageshadow="0"
     inkscape:pageopacity="0"
     inkscape:pagecheckerboard="0"
     inkscape:deskcolor="#d1d1d1"
     inkscape:document-units="px"
     inkscape:zoom="3.8803576"
     inkscape:cx="37.883106"
     inkscape:cy="49.737684"
     inkscape:window-width="1920"
     inkscape:window-height="1048"
     inkscape:window-x="0"
     inkscape:window-y="0"
     inkscape:window-maximized="1"
     inkscape:current-layer="layer1"
     showgrid="false" /><defs
     id="defs1" /><g
     inkscape:label="Calque 1"
     inkscape:groupmode="layer"
     id="layer1"
     transform="translate(0,-263.13332)"><path
       id="path2"
       style="fill:#000000;stroke-width:2.10267;stroke-linecap:round;stroke-linejoin:round;paint-order:fill markers stroke"
       d="m 31.169527,265.83046 a 9.2078712,9.2078712 0 0 0 -13.021908,-4.2e-4 9.2078712,9.2078712 0 0 0 -1.229411,11.45508 l -1.527877,1.52787 -0.15537,-0.15537 c -0.461985,-0.46198 -1.205604,-0.46241 -1.667588,-4.2e-4 L 0.34648581,291.87808 c -0.4619844,0.46199 -0.4619794,1.20603 4.9e-6,1.66801 l 3.10740869,3.1074 c 0.4619828,0.46199 1.20602,0.462 1.6680043,2e-5 L 18.342791,283.43262 c 0.461984,-0.46199 0.46156,-1.20561 -4.22e-4,-1.66759 l -0.155794,-0.15579 1.527878,-1.52789 a 9.2078712,9.2078712 0 0 0 11.455072,-1.22941 9.2078712,9.2078712 0 0 0 2e-6,-13.02148 z m -1.411457,1.41146 a 7.211266,7.211266 0 0 1 -4.26e-4,10.19814 7.211266,7.211266 0 0 1 -10.198138,4.2e-4 7.211266,7.211266 0 0 1 -6e-6,-10.19856 7.211266,7.211266 0 0 1 10.19857,0 z" /></g></svg>
