<?xml version="1.0" encoding="UTF-8" standalone="no"?>
<!-- Created with Inkscape (http://www.inkscape.org/) -->

<svg
   width="128"
   height="128"
   viewBox="0 0 33.866666 33.866666"
   version="1.1"
   id="svg1"
   inkscape:version="1.3.2 (091e20ef0f, 2023-11-25)"
   sodipodi:docname="muted.svg"
   xml:space="preserve"
   xmlns:inkscape="http://www.inkscape.org/namespaces/inkscape"
   xmlns:sodipodi="http://sodipodi.sourceforge.net/DTD/sodipodi-0.dtd"
   xmlns="http://www.w3.org/2000/svg"
   xmlns:svg="http://www.w3.org/2000/svg"><sodipodi:namedview
     id="namedview1"
     pagecolor="#505050"
     bordercolor="#eeeeee"
     borderopacity="1"
     inkscape:showpageshadow="0"
     inkscape:pageopacity="0"
     inkscape:pagecheckerboard="0"
     inkscape:deskcolor="#d1d1d1"
     inkscape:document-units="px"
     inkscape:zoom="2.7438272"
     inkscape:cx="17.129359"
     inkscape:cy="49.930258"
     inkscape:window-width="1920"
     inkscape:window-height="1048"
     inkscape:window-x="0"
     inkscape:window-y="0"
     inkscape:window-maximized="1"
     inkscape:current-layer="layer1"
     showgrid="false" /><defs
     id="defs1" /><g
     inkscape:label="Calque 1"
     inkscape:groupmode="layer"
     id="layer1"
     transform="translate(0,-263.13332)"><path
       id="path1"
       style="fill:#000000;stroke-width:0.876561;stroke-linecap:round;stroke-linejoin:round;paint-order:fill markers stroke"
       d="m 14.978976,263.13625 c 0,0.043 0.226627,0.6668 0.504358,1.38595 0.741979,1.92119 0.939469,2.8296 0.939469,4.32166 0,1.27004 -0.02593,1.38557 -0.528128,2.29028 -0.290882,0.52402 -1.197006,1.97929 -2.013298,3.23387 -1.803967,2.77253 -1.90527,3.03177 -1.578186,4.04725 0.503595,1.56351 2.210758,4.22873 4.106693,6.41299 l 1.028871,1.18544 -0.544149,0.14056 c -0.299159,0.0768 -1.212121,0.20854 -2.028801,0.29404 -2.891491,0.30221 -3.620398,0.99883 -3.75633,3.58682 -0.06677,1.27125 -0.04887,1.38034 0.375684,2.24273 0.581951,1.1821 1.743854,2.45072 3.392532,3.70413 1.262287,0.95981 1.745599,1.24168 1.444861,0.84232 -0.393787,-0.52295 -1.172525,-1.82919 -1.337892,-2.24377 -0.43208,-1.08327 0.188689,-2.98365 1.30327,-3.98576 1.576237,-1.41727 3.429888,-1.45413 6.475522,-0.13074 0.110776,0.0481 -0.189567,-0.42765 -0.667654,-1.05626 -1.307773,-1.7195 -2.962601,-4.29696 -3.746512,-5.83679 -0.678177,-1.33191 -0.697962,-1.40861 -0.687291,-2.60034 0.01533,-1.71031 0.538445,-2.97654 2.396734,-5.80062 1.382064,-2.10032 1.853103,-3.01361 1.853103,-3.59043 0,-0.39016 -0.996942,-1.7873 -2.483034,-3.47986 -3.109145,-3.54116 -4.449822,-5.03707 -4.449822,-4.96347 z"
       sodipodi:nodetypes="scssccccccsccccccccccscs" /></g></svg>
