<?xml version="1.0" encoding="UTF-8" standalone="no"?>
<!-- Created with Inkscape (http://www.inkscape.org/) -->

<svg
   width="128"
   height="128"
   viewBox="0 0 33.866666 33.866666"
   version="1.1"
   id="svg1"
   inkscape:version="1.3.2 (091e20ef0f, 2023-11-25)"
   sodipodi:docname="noNote.svg"
   xml:space="preserve"
   xmlns:inkscape="http://www.inkscape.org/namespaces/inkscape"
   xmlns:sodipodi="http://sodipodi.sourceforge.net/DTD/sodipodi-0.dtd"
   xmlns="http://www.w3.org/2000/svg"
   xmlns:svg="http://www.w3.org/2000/svg"><sodipodi:namedview
     id="namedview1"
     pagecolor="#505050"
     bordercolor="#eeeeee"
     borderopacity="1"
     inkscape:showpageshadow="0"
     inkscape:pageopacity="0"
     inkscape:pagecheckerboard="0"
     inkscape:deskcolor="#d1d1d1"
     inkscape:document-units="px"
     inkscape:zoom="3.8803576"
     inkscape:cx="72.931423"
     inkscape:cy="63.396219"
     inkscape:window-width="1920"
     inkscape:window-height="1048"
     inkscape:window-x="0"
     inkscape:window-y="0"
     inkscape:window-maximized="1"
     inkscape:current-layer="layer1"
     showgrid="false" /><defs
     id="defs1" /><g
     inkscape:label="Calque 1"
     inkscape:groupmode="layer"
     id="layer1"
     transform="translate(0,-263.13332)"><path
       id="path2"
       style="opacity:1;fill:#333333;stroke:none;stroke-width:1.44978;paint-order:fill markers stroke"
       d="m 18.459804,263.13332 -1.786487,2.42067 0.441988,13.16105 -11.1432892,-10.14715 -1.9601388,3.75251 12.722913,8.68459 -7.651308,4.0852 2.789486,1.13668 5.372112,-3.65298 0.192207,5.71559 a 3.7050977,5.9949674 53.638159 0 0 -6.47855,1.08594 3.7050977,5.9949674 53.638159 0 0 -2.631419,6.53808 3.7050977,5.9949674 53.638159 0 0 7.024922,-0.57078 3.7050977,5.9949674 53.638159 0 0 3.102685,-4.82869 l 0.0049,0.003 -0.002,-0.10634 a 3.7050977,5.9949674 53.638159 0 0 -0.0039,-0.21466 l -0.148313,-8.11869 9.996863,6.82493 -8.706026,-7.92745 10.25834,-6.9752 -11.295495,6.03073 -0.296604,-0.27026 -0.211726,-11.55118 c 0,0 5.603536,3.43146 10.251507,5.62094 0,0 -9.695459,-7.67683 -9.842686,-10.69646 z" /></g></svg>
