<?xml version="1.0" encoding="UTF-8" standalone="no"?>
<!-- Created with Inkscape (http://www.inkscape.org/) -->

<svg
   width="64.000229mm"
   height="64.000229mm"
   viewBox="0 0 64.000229 64.000229"
   version="1.1"
   id="svg1"
   inkscape:version="1.3 (0e150ed6c4, 2023-07-21)"
   sodipodi:docname="noteRonde2.svg"
   xmlns:inkscape="http://www.inkscape.org/namespaces/inkscape"
   xmlns:sodipodi="http://sodipodi.sourceforge.net/DTD/sodipodi-0.dtd"
   xmlns="http://www.w3.org/2000/svg"
   xmlns:svg="http://www.w3.org/2000/svg">
  <sodipodi:namedview
     id="namedview1"
     pagecolor="#505050"
     bordercolor="#eeeeee"
     borderopacity="1"
     inkscape:showpageshadow="0"
     inkscape:pageopacity="0"
     inkscape:pagecheckerboard="0"
     inkscape:deskcolor="#d1d1d1"
     inkscape:document-units="mm"
     inkscape:zoom="1.3719136"
     inkscape:cx="72.161979"
     inkscape:cy="88.926883"
     inkscape:window-width="1920"
     inkscape:window-height="1048"
     inkscape:window-x="0"
     inkscape:window-y="0"
     inkscape:window-maximized="1"
     inkscape:current-layer="layer1" />
  <defs
     id="defs1" />
  <g
     inkscape:label="Calque 1"
     inkscape:groupmode="layer"
     id="layer1"
     transform="translate(-12.555823,-75.205229)">
    <path
       class="Note"
       d="m 36.798243,100.56009 c -6.791367,0 -9.20642,3.44569 -9.20642,6.64526 0,3.19955 2.415053,6.64525 9.20642,6.64525 6.791386,0 9.152615,-3.4457 9.152615,-6.64525 0,-3.19957 -2.361229,-6.64526 -9.152615,-6.64526 m 0.392264,11.71378 c -1.376745,0 -2.315053,-0.39225 -2.953442,-1.62286 -0.638383,-1.23058 -1.522843,-4.43015 -1.576692,-5.71458 -0.09998,-1.33059 0.392264,-2.11509 1.576692,-2.50734 0.592217,-0.19996 1.37675,-0.29999 2.168958,-0.29999 1.322896,0 2.215081,0.29999 2.899593,1.63057 0.692187,1.27674 1.630545,4.47631 1.630545,5.70689 0,2.41506 -1.776694,2.80731 -3.745654,2.80731"
       id="path68"
       style="stroke-width:0.49224" />
    <path
       id="polyline129"
       class="Tuplet"
       style="fill:none;stroke:#000000;stroke-width:1.1466;stroke-linecap:square;stroke-linejoin:bevel"
       d="m 51.524557,75.778953 h 8.599474 v 20.145385" />
    <path
       id="polyline130"
       class="Tuplet"
       style="fill:none;stroke:#000000;stroke-width:1.1466;stroke-linecap:square;stroke-linejoin:bevel"
       d="m 60.124031,118.48635 v 20.14539 h -8.599474" />
    <path
       class="Tuplet"
       d="m 59.148632,110.28521 -0.5524,0.97402 c -0.849899,1.46793 -1.0198,1.59353 -2.105798,1.61571 h -4.9245 c 0.505202,-0.67895 1.435302,-1.46838 3.1398,-2.65583 2.804598,-1.933 2.998201,-2.0586 3.593098,-2.52318 1.695001,-1.32064 2.398499,-2.57465 2.398499,-4.24939 0,-2.23514 -1.661998,-3.718195 -4.102997,-3.718195 -2.714899,0 -5.075599,1.992005 -5.075599,4.308405 0,1.1879 0.637399,1.95518 1.6619,1.95518 0.760199,0 1.3551,-0.57554 1.3551,-1.35745 0,-0.55336 -0.278589,-0.91503 -0.982099,-1.29842 -0.505202,-0.25134 -0.590203,-0.3617 -0.590203,-0.6124 0,-0.91502 1.572302,-1.93296 3.017102,-1.93296 1.4873,0 2.488198,0.99575 2.488198,2.48632 0,1.58597 -0.698698,2.75879 -2.620399,4.41891 -5.6517,4.90613 -6.496798,5.79848 -6.690397,6.98642 h 9.117296 l 1.633602,-4.10207 -0.760203,-0.29518"
       id="path138"
       style="stroke-width:0.472154" />
  </g>
</svg>
