<?xml version="1.0" encoding="UTF-8" standalone="no"?>
<!-- Created with Inkscape (http://www.inkscape.org/) -->

<svg
   width="64.000229mm"
   height="64.000229mm"
   viewBox="0 0 64.000229 64.000229"
   version="1.1"
   id="svg1"
   inkscape:version="1.3 (0e150ed6c4, 2023-07-21)"
   sodipodi:docname="noteRonde3.svg"
   xmlns:inkscape="http://www.inkscape.org/namespaces/inkscape"
   xmlns:sodipodi="http://sodipodi.sourceforge.net/DTD/sodipodi-0.dtd"
   xmlns="http://www.w3.org/2000/svg"
   xmlns:svg="http://www.w3.org/2000/svg">
  <sodipodi:namedview
     id="namedview1"
     pagecolor="#505050"
     bordercolor="#eeeeee"
     borderopacity="1"
     inkscape:showpageshadow="0"
     inkscape:pageopacity="0"
     inkscape:pagecheckerboard="0"
     inkscape:deskcolor="#d1d1d1"
     inkscape:document-units="mm"
     inkscape:zoom="1.3719136"
     inkscape:cx="72.161979"
     inkscape:cy="88.926883"
     inkscape:window-width="1920"
     inkscape:window-height="1048"
     inkscape:window-x="0"
     inkscape:window-y="0"
     inkscape:window-maximized="1"
     inkscape:current-layer="layer1" />
  <defs
     id="defs1" />
  <g
     inkscape:label="Calque 1"
     inkscape:groupmode="layer"
     id="layer1"
     transform="translate(-12.555823,-75.205229)">
    <path
       class="Note"
       d="m 36.798243,100.56009 c -6.791367,0 -9.20642,3.44569 -9.20642,6.64526 0,3.19955 2.415053,6.64525 9.20642,6.64525 6.791386,0 9.152615,-3.4457 9.152615,-6.64525 0,-3.19957 -2.361229,-6.64526 -9.152615,-6.64526 m 0.392264,11.71378 c -1.376745,0 -2.315053,-0.39225 -2.953442,-1.62286 -0.638383,-1.23058 -1.522843,-4.43015 -1.576692,-5.71458 -0.09998,-1.33059 0.392264,-2.11509 1.576692,-2.50734 0.592217,-0.19996 1.37675,-0.29999 2.168958,-0.29999 1.322896,0 2.215081,0.29999 2.899593,1.63057 0.692187,1.27674 1.630545,4.47631 1.630545,5.70689 0,2.41506 -1.776694,2.80731 -3.745654,2.80731"
       id="path68"
       style="stroke-width:0.49224" />
    <path
       class="Tuplet"
       d="m 58.066626,106.80074 c 0.982467,-0.31069 1.372679,-0.48407 1.871079,-0.8165 0.982466,-0.64264 1.582118,-1.78416 1.582118,-2.95433 0,-1.97233 -1.582118,-3.301552 -3.908138,-3.301552 -2.268227,0 -4.182764,1.408752 -4.182764,3.120792 0,0.85254 0.520129,1.43046 1.307489,1.43046 0.686109,0 1.191906,-0.49839 1.191906,-1.18496 0,-0.35369 -0.108183,-0.59966 -0.440608,-0.93161 -0.209438,-0.18819 -0.288959,-0.33982 -0.288959,-0.48407 0,-0.4984 1.040258,-1.01853 2.015325,-1.01853 1.394411,0 2.225231,0.77256 2.225231,2.05878 0,1.8563 -1.307491,3.59745 -2.701898,3.59745 -0.06472,0 -0.2529,-0.014 -0.47667,-0.036 -0.60705,-0.0435 -0.60705,-0.0435 -0.729569,-0.0435 -0.462337,0 -0.707839,0.20943 -0.707839,0.58532 0,0.33195 0.231169,0.53446 0.59919,0.53446 0.108654,0 0.252897,-0.014 0.41934,-0.036 0.288961,-0.0652 0.606586,-0.0868 0.787359,-0.0868 0.982467,0 1.646846,0.87428 1.646846,2.16744 0,2.24649 -1.104986,4.40652 -3.619176,4.40652 -1.162779,0 -2.166975,-0.57792 -2.166975,-1.2497 0,-0.22377 0.08646,-0.31069 0.418877,-0.45493 0.599652,-0.26769 0.852551,-0.64311 0.852551,-1.20669 0,-0.72957 -0.585318,-1.28577 -1.32922,-1.28577 -0.89601,0 -1.480866,0.7009 -1.480866,1.78416 0,2.02272 1.538658,3.28722 4.038053,3.28722 3.142506,0 5.533715,-2.10225 5.533715,-4.89061 0,-1.61818 -0.997261,-2.5359 -2.456397,-2.99084"
       id="path129"
       style="stroke-width:0.462335" />
    <path
       id="polyline129"
       class="Tuplet"
       style="fill:none;stroke:#000000;stroke-width:1.1466;stroke-linecap:square;stroke-linejoin:bevel"
       d="m 51.524557,75.778953 h 8.599474 v 20.145385" />
    <path
       id="polyline130"
       class="Tuplet"
       style="fill:none;stroke:#000000;stroke-width:1.1466;stroke-linecap:square;stroke-linejoin:bevel"
       d="m 60.124031,118.48635 v 20.14539 h -8.599474" />
  </g>
</svg>
