<?xml version="1.0" encoding="UTF-8" standalone="no"?>
<!-- Created with Inkscape (http://www.inkscape.org/) -->

<svg
   width="128"
   height="128"
   viewBox="0 0 33.866667 33.866664"
   version="1.1"
   id="svg1"
   inkscape:version="1.3.2 (091e20ef0f, 2023-11-25)"
   sodipodi:docname="saveAs.svg"
   xmlns:inkscape="http://www.inkscape.org/namespaces/inkscape"
   xmlns:sodipodi="http://sodipodi.sourceforge.net/DTD/sodipodi-0.dtd"
   xmlns="http://www.w3.org/2000/svg"
   xmlns:svg="http://www.w3.org/2000/svg">
  <sodipodi:namedview
     id="namedview1"
     pagecolor="#505050"
     bordercolor="#eeeeee"
     borderopacity="1"
     inkscape:showpageshadow="0"
     inkscape:pageopacity="0"
     inkscape:pagecheckerboard="0"
     inkscape:deskcolor="#d1d1d1"
     inkscape:document-units="px"
     inkscape:zoom="10.975309"
     inkscape:cx="67.469628"
     inkscape:cy="64.235095"
     inkscape:window-width="1920"
     inkscape:window-height="1048"
     inkscape:window-x="0"
     inkscape:window-y="0"
     inkscape:window-maximized="1"
     inkscape:current-layer="layer1"
     showgrid="false" />
  <defs
     id="defs1" />
  <g
     inkscape:label="Calque 1"
     inkscape:groupmode="layer"
     id="layer1"
     transform="translate(0,-263.13332)">
    <path
       id="rect1"
       style="color:#000000;fill:#000000;stroke-linecap:round;stroke-linejoin:round;-inkscape-stroke:none;paint-order:fill markers stroke"
       d="M 5.5371295 265.0314 C 3.5336234 265.0314 1.8985921 266.6685 1.8985921 268.672 L 1.8985921 291.46286 C 1.8985921 293.46635 3.5336234 295.10139 5.5371295 295.10139 L 28.327986 295.10139 C 30.331492 295.10139 31.968595 293.46635 31.96859 291.46286 L 31.96859 272.1307 A 0.750075 0.750075 0 0 0 31.68747 271.54469 L 31.175874 271.13542 L 31.175874 272.56427 C 31.175874 273.13744 30.896209 273.65218 30.46894 273.98227 L 30.46894 291.46286 C 30.468943 292.66129 29.526439 293.60174 28.327986 293.60174 L 26.88673 293.60174 L 26.88673 282.158 C 26.88673 279.99191 25.126954 278.23266 22.960872 278.23266 L 10.906311 278.23266 C 8.740227 278.23266 6.9804522 279.99191 6.9804522 282.158 L 6.9804522 293.60174 L 5.5371295 293.60174 C 4.3386754 293.60174 3.3982421 292.66129 3.3982421 291.46286 L 3.3982421 268.672 C 3.3982421 267.49607 4.3042929 266.56865 5.4704669 266.53415 L 5.4704669 272.97045 C 5.4704669 273.95556 6.2748992 274.76155 7.2600217 274.76155 L 19.273242 274.76155 C 19.73587 274.76155 20.154993 274.57929 20.473685 274.28871 C 20.210195 274.21278 19.971124 274.07775 19.770886 273.89855 C 19.622744 273.97693 19.455215 274.02516 19.273242 274.02516 L 7.2600217 274.02516 C 6.6697954 274.02516 6.2053058 273.56066 6.2053058 272.97045 L 6.2053058 266.53105 L 20.327957 266.53105 L 20.327957 269.41872 C 20.525579 269.34265 20.738694 269.29883 20.960994 269.29883 L 21.064347 269.29883 L 21.064347 266.53105 L 23.017716 266.53105 C 23.347752 266.10387 23.862442 265.82411 24.435717 265.82411 L 24.535969 265.82411 L 23.749971 265.19521 A 0.750075 0.750075 0 0 0 23.281265 265.0314 L 5.5371295 265.0314 z M 15.177884 267.36717 A 0.20092409 0.20092409 0 0 0 14.976346 267.56819 L 14.976346 272.99008 A 0.20092409 0.20092409 0 0 0 15.177884 273.19162 L 17.441312 273.19162 A 0.20092409 0.20092409 0 0 0 17.642333 272.99008 L 17.642333 267.56819 A 0.20092409 0.20092409 0 0 0 17.441312 267.36717 L 15.177884 267.36717 z M 24.435717 267.41213 C 24.346633 267.41213 24.283814 267.45226 24.252266 267.51858 L 26.113134 269.00738 L 26.113134 267.6209 C 26.113134 267.49212 26.035188 267.41213 25.906428 267.41213 L 24.435717 267.41213 z M 15.376839 267.76973 L 17.240291 267.76973 L 17.240291 272.78906 L 15.376839 272.78906 L 15.376839 267.76973 z M 27.701151 268.35574 L 27.701151 269.29883 L 28.87989 269.29883 L 27.701151 268.35574 z M 20.960994 270.88685 C 20.831893 270.88685 20.753771 270.96447 20.753771 271.09356 L 20.753771 272.56427 C 20.753771 272.69336 20.832242 272.77356 20.960994 272.77356 L 21.064347 272.77356 L 21.064347 270.88685 L 20.960994 270.88685 z M 28.462344 270.88685 L 29.587857 271.78757 L 29.587857 271.09356 C 29.587857 270.96443 29.508187 270.88685 29.379084 270.88685 L 28.462344 270.88685 z M 10.906311 279.2326 L 22.960872 279.2326 C 24.590255 279.2326 25.886791 280.52862 25.886791 282.158 L 25.886791 293.60174 L 7.9803912 293.60174 L 7.9803912 282.158 C 7.9803912 280.52862 9.2769274 279.2326 10.906311 279.2326 z " />
    <path
       id="rect2"
       style="fill:#000000;stroke:none;stroke-width:1.13262;stroke-linecap:round;stroke-linejoin:round;paint-order:fill markers stroke"
       d="m 24.435574,266.61891 c -0.555018,0 -1.001734,0.44708 -1.001734,1.0021 v 2.47171 h -2.472075 c -0.555018,0 -1.001734,0.44672 -1.001734,1.00173 v 1.46997 c 0,0.55502 0.446716,1.00211 1.001734,1.00211 h 2.472075 v 2.4717 c 0,0.55502 0.446716,1.00174 1.001734,1.00174 h 1.469972 c 0.555017,0 1.002103,-0.44672 1.002103,-1.00174 v -2.4717 h 2.471706 c 0.555017,0 1.001734,-0.44709 1.001734,-1.00211 v -1.46997 c 0,-0.55501 -0.446717,-1.00173 -1.001734,-1.00173 h -2.471706 v -2.47171 c 0,-0.55502 -0.447086,-1.0021 -1.002103,-1.0021 z" />
    <path
       d="m 19.544977,283.43563 q -0.07483,0.14967 -0.179597,0.21702 -0.09728,0.0599 -0.246947,0.0599 -0.142181,0 -0.306812,-0.10476 -0.164631,-0.10477 -0.389127,-0.2245 -0.217014,-0.12722 -0.508859,-0.23199 -0.291846,-0.10476 -0.67349,-0.10476 -0.67349,0 -1.017718,0.32926 -0.336745,0.32926 -0.336745,0.86057 0,0.33675 0.179597,0.56125 0.187081,0.21701 0.486409,0.38164 0.306813,0.15715 0.688457,0.28436 0.389127,0.12722 0.793221,0.27688 0.404095,0.14218 0.785739,0.34423 0.389127,0.19456 0.688456,0.49389 0.306812,0.29933 0.486409,0.73336 0.187081,0.43402 0.187081,1.05513 0,0.67349 -0.224497,1.26467 -0.217013,0.59117 -0.643557,1.03268 -0.426543,0.43403 -1.047651,0.68845 -0.613624,0.25444 -1.406845,0.25444 -0.448994,0 -0.897987,-0.0973 -0.44151,-0.0898 -0.853087,-0.26191 -0.411578,-0.17211 -0.778255,-0.41158 -0.366678,-0.23946 -0.643557,-0.53879 l 0.583691,-0.9354 q 0.06735,-0.11225 0.179597,-0.17959 0.119732,-0.0673 0.25443,-0.0673 0.179597,0 0.366678,0.14218 0.194564,0.1347 0.448993,0.30681 0.254429,0.16464 0.591174,0.30681 0.336746,0.1347 0.800705,0.1347 0.67349,0 1.047651,-0.34422 0.374161,-0.34423 0.374161,-1.01772 0,-0.38165 -0.18708,-0.62111 -0.179598,-0.23946 -0.478927,-0.39661 -0.299328,-0.16464 -0.688456,-0.27688 -0.381644,-0.11973 -0.785738,-0.25443 -0.396611,-0.1347 -0.785738,-0.32178 -0.381645,-0.19457 -0.680973,-0.50886 -0.29933,-0.31429 -0.48641,-0.77825 -0.179597,-0.46396 -0.179597,-1.15242 0,-0.54628 0.20953,-1.06261 0.20953,-0.52384 0.613624,-0.92793 0.404094,-0.40409 0.987785,-0.64355 0.591175,-0.24695 1.34698,-0.24695 0.853087,0 1.57896,0.27688 0.733355,0.27687 1.249698,0.77825 z"
       id="path1"
       style="font-weight:bold;font-size:19.167px;font-family:Carlito;-inkscape-font-specification:'Carlito, Bold';text-align:center;text-anchor:middle;stroke-width:7.24046;stroke-linecap:round;stroke-linejoin:round;paint-order:fill markers stroke"
       aria-label="S" />
  </g>
</svg>
